<svg width="147" height="19" viewBox="0 0 147 19" fill="none" xmlns="http://www.w3.org/2000/svg">
<path d="M4.592 1.152V18H0.488V1.152H4.592ZM15.7261 4.464C17.2941 4.464 18.5421 4.976 19.4701 6C20.4141 7.008 20.8861 8.4 20.8861 10.176V18H16.8061V10.728C16.8061 9.832 16.5741 9.136 16.1101 8.64C15.6461 8.144 15.0221 7.896 14.2381 7.896C13.4541 7.896 12.8301 8.144 12.3661 8.64C11.9021 9.136 11.6701 9.832 11.6701 10.728V18H7.56613V4.608H11.6701V6.384C12.0861 5.792 12.6461 5.328 13.3501 4.992C14.0541 4.64 14.8461 4.464 15.7261 4.464ZM31.202 14.52V18H29.114C27.626 18 26.466 17.64 25.634 16.92C24.802 16.184 24.386 14.992 24.386 13.344V8.016H22.754V4.608H24.386V1.344H28.49V4.608H31.178V8.016H28.49V13.392C28.49 13.792 28.586 14.08 28.778 14.256C28.97 14.432 29.29 14.52 29.738 14.52H31.202ZM46.112 11.088C46.112 11.472 46.088 11.872 46.04 12.288H36.752C36.816 13.12 37.08 13.76 37.544 14.208C38.024 14.64 38.608 14.856 39.296 14.856C40.32 14.856 41.032 14.424 41.432 13.56H45.8C45.576 14.44 45.168 15.232 44.576 15.936C44 16.64 43.272 17.192 42.392 17.592C41.512 17.992 40.528 18.192 39.44 18.192C38.128 18.192 36.96 17.912 35.936 17.352C34.912 16.792 34.112 15.992 33.536 14.952C32.96 13.912 32.672 12.696 32.672 11.304C32.672 9.912 32.952 8.696 33.512 7.656C34.088 6.616 34.888 5.816 35.912 5.256C36.936 4.696 38.112 4.416 39.44 4.416C40.736 4.416 41.888 4.688 42.896 5.232C43.904 5.776 44.688 6.552 45.248 7.56C45.824 8.568 46.112 9.744 46.112 11.088ZM41.912 10.008C41.912 9.304 41.672 8.744 41.192 8.328C40.712 7.912 40.112 7.704 39.392 7.704C38.704 7.704 38.12 7.904 37.64 8.304C37.176 8.704 36.888 9.272 36.776 10.008H41.912ZM52.3811 6.84C52.8611 6.104 53.4611 5.528 54.1811 5.112C54.9011 4.68 55.7011 4.464 56.5811 4.464V8.808H55.4531C54.4291 8.808 53.6611 9.032 53.1491 9.48C52.6371 9.912 52.3811 10.68 52.3811 11.784V18H48.2771V4.608H52.3811V6.84ZM66.7027 4.464C68.2707 4.464 69.5187 4.976 70.4467 6C71.3907 7.008 71.8627 8.4 71.8627 10.176V18H67.7827V10.728C67.7827 9.832 67.5507 9.136 67.0867 8.64C66.6227 8.144 65.9987 7.896 65.2147 7.896C64.4307 7.896 63.8067 8.144 63.3427 8.64C62.8787 9.136 62.6467 9.832 62.6467 10.728V18H58.5427V4.608H62.6467V6.384C63.0627 5.792 63.6227 5.328 64.3267 4.992C65.0307 4.64 65.8227 4.464 66.7027 4.464ZM84.9146 9.36C85.8906 9.568 86.6746 10.056 87.2666 10.824C87.8586 11.576 88.1546 12.44 88.1546 13.416C88.1546 14.824 87.6586 15.944 86.6666 16.776C85.6906 17.592 84.3226 18 82.5626 18H74.7146V1.152H82.2986C84.0106 1.152 85.3466 1.544 86.3066 2.328C87.2826 3.112 87.7706 4.176 87.7706 5.52C87.7706 6.512 87.5066 7.336 86.9786 7.992C86.4666 8.648 85.7786 9.104 84.9146 9.36ZM78.8186 7.968H81.5066C82.1786 7.968 82.6906 7.824 83.0426 7.536C83.4106 7.232 83.5946 6.792 83.5946 6.216C83.5946 5.64 83.4106 5.2 83.0426 4.896C82.6906 4.592 82.1786 4.44 81.5066 4.44H78.8186V7.968ZM81.8426 14.688C82.5306 14.688 83.0586 14.536 83.4266 14.232C83.8106 13.912 84.0026 13.456 84.0026 12.864C84.0026 12.272 83.8026 11.808 83.4026 11.472C83.0186 11.136 82.4826 10.968 81.7946 10.968H78.8186V14.688H81.8426ZM94.6389 6.84C95.1189 6.104 95.7189 5.528 96.4389 5.112C97.1589 4.68 97.9589 4.464 98.8389 4.464V8.808H97.7109C96.6869 8.808 95.9189 9.032 95.4069 9.48C94.8949 9.912 94.6389 10.68 94.6389 11.784V18H90.5349V4.608H94.6389V6.84ZM99.9845 11.28C99.9845 9.904 100.241 8.696 100.753 7.656C101.281 6.616 101.993 5.816 102.889 5.256C103.785 4.696 104.785 4.416 105.889 4.416C106.833 4.416 107.657 4.608 108.361 4.992C109.081 5.376 109.633 5.88 110.017 6.504V4.608H114.121V18H110.017V16.104C109.617 16.728 109.057 17.232 108.337 17.616C107.633 18 106.809 18.192 105.865 18.192C104.777 18.192 103.785 17.912 102.889 17.352C101.993 16.776 101.281 15.968 100.753 14.928C100.241 13.872 99.9845 12.656 99.9845 11.28ZM110.017 11.304C110.017 10.28 109.729 9.472 109.153 8.88C108.593 8.288 107.905 7.992 107.089 7.992C106.273 7.992 105.577 8.288 105.001 8.88C104.441 9.456 104.161 10.256 104.161 11.28C104.161 12.304 104.441 13.12 105.001 13.728C105.577 14.32 106.273 14.616 107.089 14.616C107.905 14.616 108.593 14.32 109.153 13.728C109.729 13.136 110.017 12.328 110.017 11.304ZM125.25 4.464C126.818 4.464 128.066 4.976 128.994 6C129.938 7.008 130.41 8.4 130.41 10.176V18H126.33V10.728C126.33 9.832 126.098 9.136 125.634 8.64C125.17 8.144 124.546 7.896 123.762 7.896C122.978 7.896 122.354 8.144 121.89 8.64C121.426 9.136 121.194 9.832 121.194 10.728V18H117.09V4.608H121.194V6.384C121.61 5.792 122.17 5.328 122.874 4.992C123.578 4.64 124.37 4.464 125.25 4.464ZM132.445 11.28C132.445 9.904 132.701 8.696 133.213 7.656C133.741 6.616 134.453 5.816 135.349 5.256C136.245 4.696 137.245 4.416 138.349 4.416C139.229 4.416 140.029 4.6 140.749 4.968C141.485 5.336 142.061 5.832 142.477 6.456V0.24H146.581V18H142.477V16.08C142.093 16.72 141.541 17.232 140.821 17.616C140.117 18 139.293 18.192 138.349 18.192C137.245 18.192 136.245 17.912 135.349 17.352C134.453 16.776 133.741 15.968 133.213 14.928C132.701 13.872 132.445 12.656 132.445 11.28ZM142.477 11.304C142.477 10.28 142.189 9.472 141.613 8.88C141.053 8.288 140.365 7.992 139.549 7.992C138.733 7.992 138.037 8.288 137.461 8.88C136.901 9.456 136.621 10.256 136.621 11.28C136.621 12.304 136.901 13.12 137.461 13.728C138.037 14.32 138.733 14.616 139.549 14.616C140.365 14.616 141.053 14.32 141.613 13.728C142.189 13.136 142.477 12.328 142.477 11.304Z" fill="#030303"/>
</svg>
